<svg width="127" height="45" viewBox="0 0 127 45" fill="none" xmlns="http://www.w3.org/2000/svg">
<path d="M0.289062 3.62903C0.289062 1.62477 1.91384 0 3.91809 0H122.95C124.955 0 126.579 1.62477 126.579 3.62903V41.371C126.579 43.3752 124.955 45 122.95 45H3.9181C1.91384 45 0.289062 43.3752 0.289062 41.371V3.62903Z" fill="#1F1F1F"/>
<path d="M45.6755 10.6226C46.3375 10.6226 46.9094 10.7474 47.3913 10.9971C47.8791 11.2409 48.2507 11.5922 48.5062 12.0509C48.7675 12.5097 48.8981 13.0497 48.8981 13.671C48.8981 14.2922 48.7675 14.8322 48.5062 15.2909C48.2507 15.7439 47.8791 16.0922 47.3913 16.3361C46.9094 16.5742 46.3375 16.6932 45.6755 16.6932H43.7855V10.6226H45.6755ZM45.6755 16.04C46.4594 16.04 47.0575 15.8339 47.4697 15.4216C47.882 15.0035 48.0881 14.42 48.0881 13.671C48.0881 12.9161 47.8791 12.3268 47.461 11.9029C47.0487 11.479 46.4536 11.2671 45.6755 11.2671H44.5781V16.04H45.6755Z" fill="white"/>
<path d="M52.0251 16.7716C51.5781 16.7716 51.1716 16.67 50.8058 16.4668C50.4458 16.2635 50.1613 15.9761 49.9522 15.6045C49.749 15.2271 49.6474 14.7916 49.6474 14.298C49.6474 13.8103 49.7519 13.3806 49.961 13.009C50.1758 12.6316 50.4661 12.3442 50.8319 12.1468C51.1977 11.9435 51.6071 11.8419 52.06 11.8419C52.5129 11.8419 52.9222 11.9435 53.2881 12.1468C53.6539 12.3442 53.9413 12.6287 54.1503 13.0003C54.3651 13.3719 54.4726 13.8045 54.4726 14.298C54.4726 14.7916 54.3622 15.2271 54.1416 15.6045C53.9268 15.9761 53.6335 16.2635 53.2619 16.4668C52.8903 16.67 52.4781 16.7716 52.0251 16.7716ZM52.0251 16.0748C52.3097 16.0748 52.5768 16.008 52.8264 15.8745C53.0761 15.7409 53.2764 15.5406 53.4274 15.2735C53.5842 15.0064 53.6626 14.6813 53.6626 14.298C53.6626 13.9148 53.5871 13.5897 53.4361 13.3226C53.2851 13.0555 53.0877 12.858 52.8439 12.7303C52.6 12.5968 52.3358 12.53 52.0513 12.53C51.761 12.53 51.4939 12.5968 51.25 12.7303C51.0119 12.858 50.8203 13.0555 50.6751 13.3226C50.53 13.5897 50.4574 13.9148 50.4574 14.298C50.4574 14.6871 50.5271 15.0151 50.6664 15.2822C50.8116 15.5493 51.0032 15.7497 51.2413 15.8832C51.4793 16.0109 51.7406 16.0748 52.0251 16.0748Z" fill="white"/>
<path d="M61.8727 11.9203L60.3834 16.6932H59.5647L58.415 12.9045L57.2653 16.6932H56.4466L54.9485 11.9203H55.7585L56.856 15.9268L58.0405 11.9203H58.8505L60.0089 15.9355L61.0889 11.9203H61.8727Z" fill="white"/>
<path d="M63.4519 10.248V16.6932H62.6593V10.248H63.4519Z" fill="white"/>
<path d="M66.8843 16.7716C66.4372 16.7716 66.0308 16.67 65.665 16.4668C65.305 16.2635 65.0205 15.9761 64.8114 15.6045C64.6082 15.2271 64.5066 14.7916 64.5066 14.298C64.5066 13.8103 64.6111 13.3806 64.8201 13.009C65.035 12.6316 65.3253 12.3442 65.6911 12.1468C66.0569 11.9435 66.4663 11.8419 66.9192 11.8419C67.3721 11.8419 67.7814 11.9435 68.1472 12.1468C68.513 12.3442 68.8005 12.6287 69.0095 13.0003C69.2243 13.3719 69.3318 13.8045 69.3318 14.298C69.3318 14.7916 69.2214 15.2271 69.0008 15.6045C68.7859 15.9761 68.4927 16.2635 68.1211 16.4668C67.7495 16.67 67.3372 16.7716 66.8843 16.7716ZM66.8843 16.0748C67.1689 16.0748 67.4359 16.008 67.6856 15.8745C67.9353 15.7409 68.1356 15.5406 68.2866 15.2735C68.4434 15.0064 68.5218 14.6813 68.5218 14.298C68.5218 13.9148 68.4463 13.5897 68.2953 13.3226C68.1443 13.0555 67.9469 12.858 67.703 12.7303C67.4592 12.5968 67.195 12.53 66.9105 12.53C66.6201 12.53 66.353 12.5968 66.1092 12.7303C65.8711 12.858 65.6795 13.0555 65.5343 13.3226C65.3892 13.5897 65.3166 13.9148 65.3166 14.298C65.3166 14.6871 65.3863 15.0151 65.5256 15.2822C65.6708 15.5493 65.8624 15.7497 66.1005 15.8832C66.3385 16.0109 66.5998 16.0748 66.8843 16.0748Z" fill="white"/>
<path d="M70.0777 14.2893C70.0777 13.8016 70.1764 13.3748 70.3739 13.009C70.5713 12.6374 70.8413 12.35 71.1839 12.1468C71.5322 11.9435 71.9184 11.8419 72.3422 11.8419C72.7603 11.8419 73.1232 11.9319 73.431 12.1119C73.7387 12.2919 73.968 12.5184 74.119 12.7913V11.9203H74.9203V16.6932H74.119V15.8048C73.9622 16.0835 73.7271 16.3158 73.4135 16.5016C73.1058 16.6816 72.7458 16.7716 72.3335 16.7716C71.9097 16.7716 71.5264 16.6671 71.1839 16.458C70.8413 16.249 70.5713 15.9558 70.3739 15.5784C70.1764 15.2009 70.0777 14.7713 70.0777 14.2893ZM74.119 14.298C74.119 13.938 74.0464 13.6245 73.9013 13.3574C73.7561 13.0903 73.5587 12.8871 73.309 12.7477C73.0651 12.6026 72.7951 12.53 72.499 12.53C72.2029 12.53 71.9329 12.5997 71.689 12.739C71.4451 12.8784 71.2506 13.0816 71.1055 13.3487C70.9603 13.6158 70.8877 13.9293 70.8877 14.2893C70.8877 14.6551 70.9603 14.9745 71.1055 15.2474C71.2506 15.5145 71.4451 15.7206 71.689 15.8658C71.9329 16.0051 72.2029 16.0748 72.499 16.0748C72.7951 16.0748 73.0651 16.0051 73.309 15.8658C73.5587 15.7206 73.7561 15.5145 73.9013 15.2474C74.0464 14.9745 74.119 14.658 74.119 14.298Z" fill="white"/>
<path d="M75.9636 14.2893C75.9636 13.8016 76.0623 13.3748 76.2597 13.009C76.4571 12.6374 76.7271 12.35 77.0697 12.1468C77.4181 11.9435 77.8071 11.8419 78.2368 11.8419C78.6084 11.8419 78.9539 11.929 79.2732 12.1032C79.5926 12.2716 79.8365 12.4951 80.0049 12.7739V10.248H80.8061V16.6932H80.0049V15.7961C79.8481 16.0806 79.6158 16.3158 79.3081 16.5016C79.0003 16.6816 78.6403 16.7716 78.2281 16.7716C77.8042 16.7716 77.4181 16.6671 77.0697 16.458C76.7271 16.249 76.4571 15.9558 76.2597 15.5784C76.0623 15.2009 75.9636 14.7713 75.9636 14.2893ZM80.0049 14.298C80.0049 13.938 79.9323 13.6245 79.7871 13.3574C79.6419 13.0903 79.4445 12.8871 79.1949 12.7477C78.951 12.6026 78.681 12.53 78.3849 12.53C78.0887 12.53 77.8187 12.5997 77.5749 12.739C77.331 12.8784 77.1365 13.0816 76.9913 13.3487C76.8461 13.6158 76.7736 13.9293 76.7736 14.2893C76.7736 14.6551 76.8461 14.9745 76.9913 15.2474C77.1365 15.5145 77.331 15.7206 77.5749 15.8658C77.8187 16.0051 78.0887 16.0748 78.3849 16.0748C78.681 16.0748 78.951 16.0051 79.1949 15.8658C79.4445 15.7206 79.6419 15.5145 79.7871 15.2474C79.9323 14.9745 80.0049 14.658 80.0049 14.298Z" fill="white"/>
<path d="M86.793 11.8332C87.3737 11.8332 87.844 12.0103 88.204 12.3645C88.564 12.7129 88.744 13.218 88.744 13.88V16.6932H87.9601V13.9932C87.9601 13.5171 87.8411 13.1542 87.603 12.9045C87.365 12.649 87.0398 12.5213 86.6275 12.5213C86.2095 12.5213 85.8756 12.6519 85.6259 12.9132C85.3821 13.1745 85.2601 13.5548 85.2601 14.0542V16.6932H84.4675V11.9203H85.2601V12.5997C85.4169 12.3558 85.6288 12.1671 85.8959 12.0335C86.1688 11.9 86.4679 11.8332 86.793 11.8332Z" fill="white"/>
<path d="M92.1203 16.7716C91.6732 16.7716 91.2667 16.67 90.9009 16.4668C90.5409 16.2635 90.2564 15.9761 90.0474 15.6045C89.8442 15.2271 89.7425 14.7916 89.7425 14.298C89.7425 13.8103 89.8471 13.3806 90.0561 13.009C90.2709 12.6316 90.5613 12.3442 90.9271 12.1468C91.2929 11.9435 91.7022 11.8419 92.1551 11.8419C92.608 11.8419 93.0174 11.9435 93.3832 12.1468C93.749 12.3442 94.0364 12.6287 94.2454 13.0003C94.4603 13.3719 94.5677 13.8045 94.5677 14.298C94.5677 14.7916 94.4574 15.2271 94.2367 15.6045C94.0219 15.9761 93.7287 16.2635 93.3571 16.4668C92.9854 16.67 92.5732 16.7716 92.1203 16.7716ZM92.1203 16.0748C92.4048 16.0748 92.6719 16.008 92.9216 15.8745C93.1713 15.7409 93.3716 15.5406 93.5225 15.2735C93.6793 15.0064 93.7577 14.6813 93.7577 14.298C93.7577 13.9148 93.6822 13.5897 93.5312 13.3226C93.3803 13.0555 93.1829 12.858 92.939 12.7303C92.6951 12.5968 92.4309 12.53 92.1464 12.53C91.8561 12.53 91.589 12.5968 91.3451 12.7303C91.1071 12.858 90.9154 13.0555 90.7703 13.3226C90.6251 13.5897 90.5525 13.9148 90.5525 14.298C90.5525 14.6871 90.6222 15.0151 90.7616 15.2822C90.9067 15.5493 91.0983 15.7497 91.3364 15.8832C91.5745 16.0109 91.8358 16.0748 92.1203 16.0748Z" fill="white"/>
<path d="M101.968 11.9203L100.479 16.6932H99.6598L98.5101 12.9045L97.3604 16.6932H96.5417L95.0437 11.9203H95.8537L96.9511 15.9268L98.1356 11.9203H98.9456L100.104 15.9355L101.184 11.9203H101.968Z" fill="white"/>
<path d="M48.7922 31.5872H45.2619L44.6115 33.3872H43.4967L46.4232 25.3394H47.6425L50.5573 33.3872H49.4425L48.7922 31.5872ZM48.4903 30.7278L47.027 26.6401L45.5638 30.7278H48.4903Z" fill="white"/>
<path d="M52.8895 28.1962C53.0986 27.8323 53.4083 27.5304 53.8186 27.2904C54.2366 27.0427 54.7205 26.9188 55.2702 26.9188C55.8354 26.9188 56.3463 27.0543 56.8031 27.3253C57.2676 27.5962 57.6315 27.9794 57.8947 28.4749C58.1579 28.9627 58.2895 29.5317 58.2895 30.182C58.2895 30.8246 58.1579 31.3975 57.8947 31.9007C57.6315 32.404 57.2676 32.7949 56.8031 33.0736C56.3463 33.3523 55.8354 33.4917 55.2702 33.4917C54.7283 33.4917 54.2483 33.3717 53.8302 33.1317C53.4199 32.884 53.1063 32.5782 52.8895 32.2143V36.4065H51.8328V27.0233H52.8895V28.1962ZM57.2095 30.182C57.2095 29.702 57.1128 29.284 56.9192 28.9278C56.7257 28.5717 56.4624 28.3007 56.1295 28.1149C55.8044 27.9291 55.4444 27.8362 55.0495 27.8362C54.6624 27.8362 54.3025 27.933 53.9695 28.1265C53.6444 28.3123 53.3812 28.5872 53.1799 28.9511C52.9863 29.3072 52.8895 29.7214 52.8895 30.1936C52.8895 30.6736 52.9863 31.0956 53.1799 31.4594C53.3812 31.8156 53.6444 32.0904 53.9695 32.284C54.3025 32.4698 54.6624 32.5627 55.0495 32.5627C55.4444 32.5627 55.8044 32.4698 56.1295 32.284C56.4624 32.0904 56.7257 31.8156 56.9192 31.4594C57.1128 31.0956 57.2095 30.6698 57.2095 30.182Z" fill="white"/>
<path d="M60.7373 28.1962C60.9464 27.8323 61.256 27.5304 61.6664 27.2904C62.0844 27.0427 62.5683 26.9188 63.118 26.9188C63.6831 26.9188 64.1941 27.0543 64.6509 27.3253C65.1154 27.5962 65.4793 27.9794 65.7425 28.4749C66.0057 28.9627 66.1373 29.5317 66.1373 30.182C66.1373 30.8246 66.0057 31.3975 65.7425 31.9007C65.4793 32.404 65.1154 32.7949 64.6509 33.0736C64.1941 33.3523 63.6831 33.4917 63.118 33.4917C62.576 33.4917 62.096 33.3717 61.678 33.1317C61.2677 32.884 60.9541 32.5782 60.7373 32.2143V36.4065H59.6806V27.0233H60.7373V28.1962ZM65.0573 30.182C65.0573 29.702 64.9606 29.284 64.767 28.9278C64.5735 28.5717 64.3102 28.3007 63.9773 28.1149C63.6522 27.9291 63.2922 27.8362 62.8973 27.8362C62.5102 27.8362 62.1502 27.933 61.8173 28.1265C61.4922 28.3123 61.2289 28.5872 61.0277 28.9511C60.8341 29.3072 60.7373 29.7214 60.7373 30.1936C60.7373 30.6736 60.8341 31.0956 61.0277 31.4594C61.2289 31.8156 61.4922 32.0904 61.8173 32.284C62.1502 32.4698 62.5102 32.5627 62.8973 32.5627C63.2922 32.5627 63.6522 32.4698 63.9773 32.284C64.3102 32.0904 64.5735 31.8156 64.767 31.4594C64.9606 31.0956 65.0573 30.6698 65.0573 30.182Z" fill="white"/>
<path d="M73.1908 33.4685C72.6566 33.4685 72.1766 33.3756 71.7508 33.1898C71.3327 32.9962 71.0037 32.733 70.7637 32.4001C70.5237 32.0594 70.3998 31.6685 70.3921 31.2272H71.5185C71.5573 31.6065 71.7121 31.9278 71.9831 32.1911C72.2618 32.4465 72.6644 32.5743 73.1908 32.5743C73.694 32.5743 74.0889 32.4504 74.3753 32.2027C74.6695 31.9472 74.8166 31.622 74.8166 31.2272C74.8166 30.9175 74.7314 30.6659 74.5611 30.4723C74.3908 30.2788 74.1779 30.1317 73.9224 30.0311C73.6669 29.9304 73.3224 29.822 72.8889 29.7059C72.3547 29.5665 71.925 29.4272 71.5998 29.2878C71.2824 29.1485 71.0076 28.9317 70.7753 28.6375C70.5508 28.3356 70.4385 27.933 70.4385 27.4298C70.4385 26.9885 70.5508 26.5975 70.7753 26.2569C70.9998 25.9162 71.3134 25.653 71.716 25.4672C72.1263 25.2814 72.5947 25.1885 73.1211 25.1885C73.8798 25.1885 74.4992 25.3782 74.9792 25.7575C75.4669 26.1369 75.7418 26.6401 75.8037 27.2672H74.6424C74.6037 26.9575 74.4411 26.6865 74.1547 26.4543C73.8682 26.2143 73.4889 26.0943 73.0166 26.0943C72.5753 26.0943 72.2153 26.2104 71.9366 26.4427C71.6579 26.6672 71.5185 26.9846 71.5185 27.3949C71.5185 27.6891 71.5998 27.9291 71.7624 28.1149C71.9327 28.3007 72.1379 28.444 72.3779 28.5446C72.6256 28.6375 72.9702 28.7459 73.4114 28.8698C73.9456 29.0169 74.3753 29.164 74.7005 29.3111C75.0256 29.4504 75.3044 29.6711 75.5366 29.973C75.7689 30.2672 75.885 30.6698 75.885 31.1807C75.885 31.5756 75.7805 31.9472 75.5715 32.2956C75.3624 32.644 75.0527 32.9265 74.6424 33.1433C74.2321 33.3601 73.7482 33.4685 73.1908 33.4685Z" fill="white"/>
<path d="M78.7292 27.8943V31.6453C78.7292 31.9549 78.795 32.1756 78.9266 32.3072C79.0582 32.4311 79.2866 32.493 79.6117 32.493H80.3898V33.3872H79.4375C78.8492 33.3872 78.4079 33.2517 78.1137 32.9807C77.8195 32.7098 77.6724 32.2646 77.6724 31.6453V27.8943H76.8479V27.0233H77.6724V25.4207H78.7292V27.0233H80.3898V27.8943H78.7292Z" fill="white"/>
<path d="M84.4457 33.4917C83.8496 33.4917 83.3076 33.3562 82.8199 33.0853C82.3399 32.8143 81.9605 32.4311 81.6818 31.9356C81.4109 31.4323 81.2754 30.8517 81.2754 30.1936C81.2754 29.5433 81.4147 28.9704 81.6934 28.4749C81.9799 27.9717 82.367 27.5885 82.8547 27.3253C83.3425 27.0543 83.8883 26.9188 84.4922 26.9188C85.096 26.9188 85.6418 27.0543 86.1296 27.3253C86.6173 27.5885 87.0005 27.9678 87.2793 28.4633C87.5657 28.9588 87.7089 29.5356 87.7089 30.1936C87.7089 30.8517 87.5618 31.4323 87.2676 31.9356C86.9812 32.4311 86.5902 32.8143 86.0947 33.0853C85.5993 33.3562 85.0496 33.4917 84.4457 33.4917ZM84.4457 32.5627C84.8251 32.5627 85.1812 32.4736 85.5141 32.2956C85.847 32.1175 86.1141 31.8504 86.3154 31.4943C86.5244 31.1382 86.6289 30.7046 86.6289 30.1936C86.6289 29.6827 86.5283 29.2491 86.327 28.893C86.1257 28.5369 85.8625 28.2736 85.5373 28.1033C85.2122 27.9253 84.8599 27.8362 84.4805 27.8362C84.0934 27.8362 83.7373 27.9253 83.4122 28.1033C83.0947 28.2736 82.8393 28.5369 82.6457 28.893C82.4522 29.2491 82.3554 29.6827 82.3554 30.1936C82.3554 30.7123 82.4483 31.1498 82.6341 31.5059C82.8276 31.862 83.0831 32.1291 83.4005 32.3072C83.718 32.4775 84.0663 32.5627 84.4457 32.5627Z" fill="white"/>
<path d="M90.1552 28.0569C90.341 27.693 90.6042 27.4104 90.9448 27.2091C91.2932 27.0078 91.7152 26.9072 92.2107 26.9072V27.9988H91.9319C90.7474 27.9988 90.1552 28.6414 90.1552 29.9265V33.3872H89.0984V27.0233H90.1552V28.0569Z" fill="white"/>
<path d="M99.237 29.9614C99.237 30.1627 99.2254 30.3756 99.2022 30.6001H94.1157C94.1544 31.2272 94.3673 31.7188 94.7544 32.0749C95.1493 32.4233 95.6254 32.5975 96.1828 32.5975C96.6396 32.5975 97.0189 32.493 97.3209 32.284C97.6306 32.0672 97.8473 31.7807 97.9712 31.4246H99.1093C98.9389 32.0362 98.5983 32.5356 98.0873 32.9227C97.5764 33.302 96.9415 33.4917 96.1828 33.4917C95.5789 33.4917 95.037 33.3562 94.557 33.0853C94.0847 32.8143 93.7131 32.4311 93.4422 31.9356C93.1712 31.4323 93.0357 30.8517 93.0357 30.1936C93.0357 29.5356 93.1673 28.9588 93.4306 28.4633C93.6938 27.9678 94.0615 27.5885 94.5338 27.3253C95.0138 27.0543 95.5635 26.9188 96.1828 26.9188C96.7867 26.9188 97.3209 27.0504 97.7854 27.3136C98.2499 27.5769 98.606 27.9407 98.8538 28.4053C99.1093 28.862 99.237 29.3807 99.237 29.9614ZM98.1454 29.7407C98.1454 29.3382 98.0564 28.9936 97.8783 28.7072C97.7002 28.413 97.4564 28.1923 97.1467 28.0453C96.8447 27.8904 96.508 27.813 96.1364 27.813C95.6022 27.813 95.1454 27.9833 94.766 28.324C94.3944 28.6646 94.1815 29.1369 94.1273 29.7407H98.1454Z" fill="white"/>
<path d="M30.2148 22.3526C30.2053 20.6868 30.9432 19.4313 32.4335 18.5056C31.6 17.2843 30.339 16.6126 28.6768 16.4832C27.103 16.3562 25.3811 17.4211 24.7506 17.4211C24.0843 17.4211 22.5606 16.5271 21.3618 16.5271C18.8876 16.5662 16.2582 18.5447 16.2582 22.57C16.2582 23.7595 16.4707 24.988 16.8958 26.2533C17.4642 27.9191 19.5133 32.0005 21.6507 31.9346C22.7684 31.9077 23.5589 31.1237 25.0133 31.1237C26.4248 31.1237 27.1556 31.9346 28.4022 31.9346C30.5587 31.9028 32.412 28.1926 32.9517 26.522C30.0596 25.1273 30.2148 22.4381 30.2148 22.3526ZM27.7048 14.9029C28.9157 13.4325 28.8058 12.094 28.77 11.6128C27.7001 11.6763 26.463 12.3578 25.7585 13.1955C24.9823 14.0944 24.5261 15.2057 24.6241 16.4588C25.7799 16.5491 26.8355 15.9409 27.7048 14.9029Z" fill="white"/>
</svg>
