<svg width="127" height="45" viewBox="0 0 127 45" fill="none" xmlns="http://www.w3.org/2000/svg">
<path d="M0 3.62903C0 1.62477 1.62477 0 3.62903 0H122.661C124.666 0 126.29 1.62477 126.29 3.62903V41.371C126.29 43.3752 124.666 45 122.661 45H3.62903C1.62477 45 0 43.3752 0 41.371V3.62903Z" fill="#1F1F1F"/>
<path d="M23.9108 22.0897L27.0133 18.9872L16.9923 13.3551C16.3282 12.9963 15.706 12.9459 15.1604 13.3383L23.9108 22.0897ZM27.5421 25.7221L30.7673 23.908C31.3968 23.5555 31.742 23.056 31.742 22.5021C31.742 21.9491 31.3968 21.4487 30.7684 21.0961L27.8484 19.4562L24.5613 22.7423L27.5421 25.7221ZM14.6212 14.1011C14.554 14.3078 14.5162 14.5386 14.5162 14.7915V30.22C14.5162 30.6197 14.6044 30.9639 14.7638 31.2377L23.2592 22.7413L14.6212 14.1011ZM23.9108 23.3918L15.4626 31.841C15.6242 31.9029 15.7984 31.9354 15.982 31.9354C16.3093 31.9354 16.6503 31.8389 16.9976 31.6458L26.708 26.1931L23.9108 23.3918Z" fill="white"/>
<path d="M48.0947 12.3822C47.9263 12.028 47.6824 11.7551 47.3631 11.5635C47.0437 11.3661 46.6721 11.2674 46.2482 11.2674C45.8243 11.2674 45.4411 11.3661 45.0985 11.5635C44.7618 11.7551 44.4947 12.0338 44.2972 12.3996C44.1056 12.7596 44.0098 13.1777 44.0098 13.6538C44.0098 14.1299 44.1056 14.548 44.2972 14.908C44.4947 15.268 44.7618 15.5467 45.0985 15.7441C45.4411 15.9358 45.8243 16.0316 46.2482 16.0316C46.8405 16.0316 47.3282 15.8545 47.7114 15.5003C48.0947 15.1461 48.3182 14.667 48.3821 14.0632H45.9608V13.4187H49.2269V14.0283C49.1805 14.5277 49.0237 14.9864 48.7566 15.4045C48.4895 15.8167 48.1382 16.1448 47.7027 16.3887C47.2672 16.6267 46.7824 16.7458 46.2482 16.7458C45.685 16.7458 45.1711 16.6151 44.7066 16.3538C44.2421 16.0867 43.8734 15.718 43.6005 15.2477C43.3334 14.7774 43.1998 14.2461 43.1998 13.6538C43.1998 13.0616 43.3334 12.5303 43.6005 12.0599C43.8734 11.5838 44.2421 11.2151 44.7066 10.9538C45.1711 10.6867 45.685 10.5532 46.2482 10.5532C46.8927 10.5532 47.4618 10.7128 47.9553 11.0322C48.4547 11.3516 48.8176 11.8016 49.044 12.3822H48.0947Z" fill="white"/>
<path d="M54.6297 14.1241C54.6297 14.2751 54.621 14.4348 54.6036 14.6032H50.7887C50.8178 15.0735 50.9775 15.4422 51.2678 15.7093C51.5639 15.9706 51.921 16.1012 52.3391 16.1012C52.6817 16.1012 52.9662 16.0228 53.1926 15.8661C53.4249 15.7035 53.5875 15.4887 53.6804 15.2216H54.5339C54.4062 15.6803 54.1507 16.0548 53.7675 16.3451C53.3842 16.6296 52.9081 16.7719 52.3391 16.7719C51.8862 16.7719 51.4797 16.6703 51.1197 16.467C50.7655 16.2638 50.4868 15.9764 50.2836 15.6048C50.0804 15.2274 49.9787 14.7919 49.9787 14.2983C49.9787 13.8048 50.0775 13.3722 50.2749 13.0006C50.4723 12.629 50.7481 12.3445 51.1023 12.147C51.4623 11.9438 51.8746 11.8422 52.3391 11.8422C52.792 11.8422 53.1926 11.9409 53.541 12.1383C53.8894 12.3358 54.1565 12.6087 54.3423 12.957C54.5339 13.2996 54.6297 13.6887 54.6297 14.1241ZM53.811 13.9587C53.811 13.6567 53.7442 13.3983 53.6107 13.1835C53.4771 12.9628 53.2942 12.7974 53.062 12.687C52.8355 12.5709 52.5829 12.5128 52.3042 12.5128C51.9036 12.5128 51.561 12.6406 51.2765 12.8961C50.9978 13.1516 50.8381 13.5058 50.7975 13.9587H53.811Z" fill="white"/>
<path d="M56.6427 12.5738V15.387C56.6427 15.6193 56.692 15.7848 56.7907 15.8835C56.8894 15.9764 57.0607 16.0228 57.3046 16.0228H57.8882V16.6935H57.174C56.7327 16.6935 56.4017 16.5919 56.1811 16.3887C55.9604 16.1854 55.8501 15.8516 55.8501 15.387V12.5738H55.2317V11.9206H55.8501V10.7187H56.6427V11.9206H57.8882V12.5738H56.6427Z" fill="white"/>
<path d="M61.5798 11.1454C61.4289 11.1454 61.3011 11.0932 61.1966 10.9887C61.0921 10.8841 61.0398 10.7564 61.0398 10.6054C61.0398 10.4545 61.0921 10.3267 61.1966 10.2222C61.3011 10.1177 61.4289 10.0654 61.5798 10.0654C61.725 10.0654 61.8469 10.1177 61.9456 10.2222C62.0502 10.3267 62.1024 10.4545 62.1024 10.6054C62.1024 10.7564 62.0502 10.8841 61.9456 10.9887C61.8469 11.0932 61.725 11.1454 61.5798 11.1454ZM61.9631 11.9206V16.6935H61.1705V11.9206H61.9631Z" fill="white"/>
<path d="M64.2807 12.5738V15.387C64.2807 15.6193 64.33 15.7848 64.4287 15.8835C64.5274 15.9764 64.6987 16.0228 64.9426 16.0228H65.5261V16.6935H64.8119C64.3707 16.6935 64.0397 16.5919 63.819 16.3887C63.5984 16.1854 63.4881 15.8516 63.4881 15.387V12.5738H62.8697V11.9206H63.4881V10.7187H64.2807V11.9206H65.5261V12.5738H64.2807Z" fill="white"/>
<path d="M71.1339 11.8335C71.7146 11.8335 72.1849 12.0106 72.5449 12.3648C72.9049 12.7132 73.0849 13.2183 73.0849 13.8803V16.6935H72.301V13.9935C72.301 13.5174 72.182 13.1545 71.9439 12.9048C71.7059 12.6493 71.3807 12.5216 70.9685 12.5216C70.5504 12.5216 70.2165 12.6522 69.9668 12.9135C69.723 13.1748 69.601 13.5551 69.601 14.0545V16.6935H68.8085V11.9206H69.601V12.5999C69.7578 12.3561 69.9697 12.1674 70.2368 12.0338C70.5097 11.9003 70.8088 11.8335 71.1339 11.8335Z" fill="white"/>
<path d="M76.4612 16.7719C76.0141 16.7719 75.6077 16.6703 75.2418 16.467C74.8818 16.2638 74.5973 15.9764 74.3883 15.6048C74.1851 15.2274 74.0835 14.7919 74.0835 14.2983C74.0835 13.8106 74.188 13.3809 74.397 13.0093C74.6119 12.6319 74.9022 12.3445 75.268 12.147C75.6338 11.9438 76.0431 11.8422 76.496 11.8422C76.9489 11.8422 77.3583 11.9438 77.7241 12.147C78.0899 12.3445 78.3773 12.629 78.5864 13.0006C78.8012 13.3722 78.9086 13.8048 78.9086 14.2983C78.9086 14.7919 78.7983 15.2274 78.5777 15.6048C78.3628 15.9764 78.0696 16.2638 77.698 16.467C77.3264 16.6703 76.9141 16.7719 76.4612 16.7719ZM76.4612 16.0751C76.7457 16.0751 77.0128 16.0083 77.2625 15.8748C77.5122 15.7412 77.7125 15.5409 77.8635 15.2738C78.0202 15.0067 78.0986 14.6816 78.0986 14.2983C78.0986 13.9151 78.0231 13.5899 77.8722 13.3228C77.7212 13.0558 77.5238 12.8583 77.2799 12.7306C77.036 12.597 76.7719 12.5303 76.4873 12.5303C76.197 12.5303 75.9299 12.597 75.686 12.7306C75.448 12.8583 75.2564 13.0558 75.1112 13.3228C74.966 13.5899 74.8935 13.9151 74.8935 14.2983C74.8935 14.6874 74.9631 15.0154 75.1025 15.2825C75.2477 15.5496 75.4393 15.7499 75.6773 15.8835C75.9154 16.0112 76.1767 16.0751 76.4612 16.0751Z" fill="white"/>
<path d="M86.3088 11.9206L84.8194 16.6935H84.0007L82.851 12.9048L81.7014 16.6935H80.8827L79.3846 11.9206H80.1946L81.292 15.927L82.4765 11.9206H83.2865L84.4449 15.9358L85.5249 11.9206H86.3088Z" fill="white"/>
<path d="M49.8476 27.6386C49.6231 27.1664 49.2979 26.8025 48.8721 26.547C48.4463 26.2838 47.9508 26.1522 47.3857 26.1522C46.8205 26.1522 46.3096 26.2838 45.8528 26.547C45.4037 26.8025 45.0476 27.1741 44.7844 27.6618C44.5289 28.1418 44.4012 28.6993 44.4012 29.3341C44.4012 29.9689 44.5289 30.5264 44.7844 31.0064C45.0476 31.4864 45.4037 31.858 45.8528 32.1212C46.3096 32.3767 46.8205 32.5044 47.3857 32.5044C48.1754 32.5044 48.8257 32.2683 49.3367 31.796C49.8476 31.3238 50.1457 30.6851 50.2308 29.8799H47.0025V29.0206H51.3573V29.8335C51.2954 30.4993 51.0863 31.1109 50.7302 31.6683C50.3741 32.218 49.9057 32.6554 49.325 32.9806C48.7444 33.298 48.0979 33.4567 47.3857 33.4567C46.6347 33.4567 45.9496 33.2825 45.3302 32.9341C44.7108 32.578 44.2192 32.0864 43.8554 31.4593C43.4992 30.8322 43.3212 30.1238 43.3212 29.3341C43.3212 28.5444 43.4992 27.836 43.8554 27.2089C44.2192 26.5741 44.7108 26.0825 45.3302 25.7341C45.9496 25.378 46.6347 25.1999 47.3857 25.1999C48.245 25.1999 49.0037 25.4128 49.6618 25.8386C50.3276 26.2644 50.8115 26.8644 51.1134 27.6386H49.8476Z" fill="white"/>
<path d="M55.53 33.4915C54.9339 33.4915 54.392 33.356 53.9042 33.0851C53.4242 32.8141 53.0449 32.4309 52.7662 31.9354C52.4952 31.4322 52.3597 30.8515 52.3597 30.1935C52.3597 29.5431 52.4991 28.9702 52.7778 28.4747C53.0642 27.9715 53.4513 27.5883 53.9391 27.3251C54.4268 27.0541 54.9726 26.9186 55.5765 26.9186C56.1804 26.9186 56.7262 27.0541 57.2139 27.3251C57.7017 27.5883 58.0849 27.9677 58.3636 28.4631C58.65 28.9586 58.7933 29.5354 58.7933 30.1935C58.7933 30.8515 58.6462 31.4322 58.352 31.9354C58.0655 32.4309 57.6746 32.8141 57.1791 33.0851C56.6836 33.356 56.1339 33.4915 55.53 33.4915ZM55.53 32.5625C55.9094 32.5625 56.2655 32.4735 56.5984 32.2954C56.9313 32.1173 57.1984 31.8502 57.3997 31.4941C57.6088 31.138 57.7133 30.7044 57.7133 30.1935C57.7133 29.6825 57.6126 29.2489 57.4113 28.8928C57.21 28.5367 56.9468 28.2735 56.6217 28.1031C56.2965 27.9251 55.9442 27.836 55.5649 27.836C55.1778 27.836 54.8217 27.9251 54.4965 28.1031C54.1791 28.2735 53.9236 28.5367 53.73 28.8928C53.5365 29.2489 53.4397 29.6825 53.4397 30.1935C53.4397 30.7122 53.5326 31.1496 53.7184 31.5057C53.912 31.8618 54.1675 32.1289 54.4849 32.307C54.8023 32.4773 55.1507 32.5625 55.53 32.5625Z" fill="white"/>
<path d="M62.9582 33.4915C62.3621 33.4915 61.8202 33.356 61.3324 33.0851C60.8524 32.8141 60.4731 32.4309 60.1944 31.9354C59.9234 31.4322 59.7879 30.8515 59.7879 30.1935C59.7879 29.5431 59.9273 28.9702 60.206 28.4747C60.4924 27.9715 60.8795 27.5883 61.3673 27.3251C61.855 27.0541 62.4008 26.9186 63.0047 26.9186C63.6085 26.9186 64.1544 27.0541 64.6421 27.3251C65.1298 27.5883 65.5131 27.9677 65.7918 28.4631C66.0782 28.9586 66.2215 29.5354 66.2215 30.1935C66.2215 30.8515 66.0744 31.4322 65.7802 31.9354C65.4937 32.4309 65.1027 32.8141 64.6073 33.0851C64.1118 33.356 63.5621 33.4915 62.9582 33.4915ZM62.9582 32.5625C63.3376 32.5625 63.6937 32.4735 64.0266 32.2954C64.3595 32.1173 64.6266 31.8502 64.8279 31.4941C65.0369 31.138 65.1414 30.7044 65.1414 30.1935C65.1414 29.6825 65.0408 29.2489 64.8395 28.8928C64.6382 28.5367 64.375 28.2735 64.0498 28.1031C63.7247 27.9251 63.3724 27.836 62.9931 27.836C62.606 27.836 62.2498 27.9251 61.9247 28.1031C61.6073 28.2735 61.3518 28.5367 61.1582 28.8928C60.9647 29.2489 60.8679 29.6825 60.8679 30.1935C60.8679 30.7122 60.9608 31.1496 61.1466 31.5057C61.3402 31.8618 61.5956 32.1289 61.9131 32.307C62.2305 32.4773 62.5789 32.5625 62.9582 32.5625Z" fill="white"/>
<path d="M70.2354 26.9186C70.7851 26.9186 71.2651 27.0386 71.6754 27.2786C72.0935 27.5186 72.4032 27.8206 72.6045 28.1844V27.0231H73.6729V33.5264C73.6729 34.107 73.549 34.6218 73.3012 35.0709C73.0535 35.5276 72.6974 35.8838 72.2329 36.1393C71.7761 36.3947 71.2419 36.5225 70.6303 36.5225C69.7941 36.5225 69.0974 36.3251 68.5399 35.9302C67.9825 35.5354 67.6535 34.9973 67.5529 34.316H68.598C68.7141 34.7031 68.9541 35.0128 69.318 35.2451C69.6819 35.4851 70.1193 35.6051 70.6303 35.6051C71.2109 35.6051 71.6832 35.4231 72.047 35.0593C72.4187 34.6954 72.6045 34.1844 72.6045 33.5264V32.1909C72.3954 32.5625 72.0858 32.8722 71.6754 33.1199C71.2651 33.3677 70.7851 33.4915 70.2354 33.4915C69.6703 33.4915 69.1554 33.3522 68.6909 33.0735C68.2341 32.7947 67.8741 32.4038 67.6109 31.9006C67.3477 31.3973 67.2161 30.8244 67.2161 30.1818C67.2161 29.5315 67.3477 28.9625 67.6109 28.4747C67.8741 27.9793 68.2341 27.596 68.6909 27.3251C69.1554 27.0541 69.6703 26.9186 70.2354 26.9186ZM72.6045 30.1935C72.6045 29.7135 72.5077 29.2954 72.3141 28.9393C72.1206 28.5831 71.8574 28.3122 71.5245 28.1264C71.1993 27.9328 70.8393 27.836 70.4445 27.836C70.0496 27.836 69.6896 27.9289 69.3645 28.1147C69.0393 28.3006 68.7799 28.5715 68.5864 28.9277C68.3929 29.2838 68.2961 29.7018 68.2961 30.1818C68.2961 30.6696 68.3929 31.0954 68.5864 31.4593C68.7799 31.8154 69.0393 32.0902 69.3645 32.2838C69.6896 32.4696 70.0496 32.5625 70.4445 32.5625C70.8393 32.5625 71.1993 32.4696 71.5245 32.2838C71.8574 32.0902 72.1206 31.8154 72.3141 31.4593C72.5077 31.0954 72.6045 30.6735 72.6045 30.1935Z" fill="white"/>
<path d="M76.5155 24.7935V33.387H75.4587V24.7935H76.5155Z" fill="white"/>
<path d="M84.123 29.9612C84.123 30.1625 84.1114 30.3754 84.0882 30.5999H79.0017C79.0404 31.227 79.2533 31.7186 79.6404 32.0747C80.0353 32.4231 80.5114 32.5973 81.0688 32.5973C81.5256 32.5973 81.9049 32.4928 82.2069 32.2838C82.5166 32.067 82.7333 31.7806 82.8572 31.4244H83.9953C83.8249 32.036 83.4843 32.5354 82.9733 32.9225C82.4624 33.3018 81.8275 33.4915 81.0688 33.4915C80.465 33.4915 79.923 33.356 79.443 33.0851C78.9708 32.8141 78.5991 32.4309 78.3282 31.9354C78.0572 31.4322 77.9217 30.8515 77.9217 30.1935C77.9217 29.5354 78.0533 28.9586 78.3166 28.4631C78.5798 27.9677 78.9475 27.5883 79.4198 27.3251C79.8998 27.0541 80.4495 26.9186 81.0688 26.9186C81.6727 26.9186 82.2069 27.0502 82.6714 27.3135C83.1359 27.5767 83.492 27.9406 83.7398 28.4051C83.9953 28.8618 84.123 29.3806 84.123 29.9612ZM83.0314 29.7406C83.0314 29.338 82.9424 28.9935 82.7643 28.707C82.5862 28.4128 82.3424 28.1922 82.0327 28.0451C81.7308 27.8902 81.394 27.8128 81.0224 27.8128C80.4882 27.8128 80.0314 27.9831 79.652 28.3238C79.2804 28.6644 79.0675 29.1367 79.0133 29.7406H83.0314Z" fill="white"/>
<path d="M94.0256 27.6618C94.0256 28.3354 93.7933 28.8967 93.3288 29.3457C92.872 29.787 92.1714 30.0077 91.2268 30.0077H89.6707V33.387H88.6139V25.2928H91.2268C92.1404 25.2928 92.8333 25.5135 93.3055 25.9547C93.7855 26.396 94.0256 26.9651 94.0256 27.6618ZM91.2268 29.1367C91.8152 29.1367 92.2488 29.0089 92.5275 28.7535C92.8062 28.498 92.9455 28.1341 92.9455 27.6618C92.9455 26.6631 92.3727 26.1638 91.2268 26.1638H89.6707V29.1367H91.2268Z" fill="white"/>
<path d="M96.3958 24.7935V33.387H95.339V24.7935H96.3958Z" fill="white"/>
<path d="M97.802 30.1818C97.802 29.5315 97.9336 28.9625 98.1969 28.4747C98.4601 27.9793 98.8201 27.596 99.2769 27.3251C99.7414 27.0541 100.256 26.9186 100.821 26.9186C101.379 26.9186 101.863 27.0386 102.273 27.2786C102.683 27.5186 102.989 27.8206 103.19 28.1844V27.0231H104.259V33.387H103.19V32.2025C102.981 32.5741 102.668 32.8838 102.25 33.1315C101.839 33.3715 101.359 33.4915 100.81 33.4915C100.245 33.4915 99.7336 33.3522 99.2769 33.0735C98.8201 32.7947 98.4601 32.4038 98.1969 31.9006C97.9336 31.3973 97.802 30.8244 97.802 30.1818ZM103.19 30.1935C103.19 29.7135 103.094 29.2954 102.9 28.9393C102.707 28.5831 102.443 28.3122 102.11 28.1264C101.785 27.9328 101.425 27.836 101.03 27.836C100.636 27.836 100.276 27.9289 99.9504 28.1147C99.6252 28.3006 99.3659 28.5715 99.1723 28.9277C98.9788 29.2838 98.882 29.7018 98.882 30.1818C98.882 30.6696 98.9788 31.0954 99.1723 31.4593C99.3659 31.8154 99.6252 32.0902 99.9504 32.2838C100.276 32.4696 100.636 32.5625 101.03 32.5625C101.425 32.5625 101.785 32.4696 102.11 32.2838C102.443 32.0902 102.707 31.8154 102.9 31.4593C103.094 31.0954 103.19 30.6735 103.19 30.1935Z" fill="white"/>
<path d="M111.526 27.0231L107.694 36.3831H106.602L107.856 33.3173L105.29 27.0231H106.463L108.46 32.1793L110.434 27.0231H111.526Z" fill="white"/>
</svg>
