<?xml version="1.0" encoding="utf-8"?>
<!-- Generator: Adobe Illustrator 22.1.0, SVG Export Plug-In . SVG Version: 6.00 Build 0)  -->
<svg version="1.1" id="Layer_1" xmlns="http://www.w3.org/2000/svg" xmlns:xlink="http://www.w3.org/1999/xlink" x="0px" y="0px"
	 viewBox="0 0 361 387" style="enable-background:new 0 0 361 387;" xml:space="preserve">
<style type="text/css">
	.st0{fill:#D8C295;fill-opacity:0.15;filter:url(#Adobe_OpacityMaskFilter);}
	.st1{mask:url(#mask0_4_151_1_);}
	.st2{fill:#D8C295;}
	.st3{fill:none;stroke:#D8C295;}
	.st4{fill:#D8C295;fill-opacity:0.5;}
	.st5{fill:#FFFFFF;fill-opacity:0.5;}
</style>
<g>
	<defs>
		<filter id="Adobe_OpacityMaskFilter" filterUnits="userSpaceOnUse" x="13.6" y="18.5" width="341.4" height="350">
			<feColorMatrix  type="matrix" values="1 0 0 0 0  0 1 0 0 0  0 0 1 0 0  0 0 0 1 0"/>
		</filter>
	</defs>
	<mask maskUnits="userSpaceOnUse" x="13.6" y="18.5" width="341.4" height="350" id="mask0_4_151_1_">
		<path class="st0" d="M180,18.5c32.3,0,63.9,8.9,91.4,25.8c27.5,16.9,49.8,41,64.5,69.8c14.7,28.8,21.1,61,18.5,93.2
			c-2.5,32.2-13.9,63-32.9,89.1c-19,26.1-44.8,46.5-74.6,58.8c-29.8,12.4-62.5,16.2-94.3,11.2c-31.9-5-61.7-18.8-86.3-39.8
			c-24.5-21-42.8-48.3-52.8-79L180,193.5V18.5z"/>
	</mask>
	<g class="st1">
		<g>
			<path class="st2" d="M180,18.5c32.3,0,63.9,8.9,91.4,25.8c27.5,16.9,49.8,41,64.5,69.8c14.7,28.8,21.1,61,18.5,93.2
				c-2.5,32.2-13.9,63-32.9,89.1c-19,26.1-44.8,46.5-74.6,58.8c-29.8,12.4-62.5,16.2-94.3,11.2c-31.9-5-61.7-18.8-86.3-39.8
				c-24.5-21-42.8-48.3-52.8-79L180,193.5V18.5z"/>
		</g>
	</g>
	<path class="st2" d="M12,242.8c2.6-0.9,5.4,0.6,6.3,3.2c9.7,29.8,27.4,56.4,51.3,76.7c23.8,20.4,52.8,33.7,83.8,38.6
		c31,4.9,62.7,1.1,91.6-10.8c29-12,54-31.8,72.5-57.1c18.4-25.4,29.5-55.3,31.9-86.6s-3.8-62.6-18-90.5
		c-14.2-27.9-35.9-51.4-62.6-67.8c-26.7-16.4-57.5-25.1-88.8-25.1c-2.8,0-5-2.2-5-5c0-2.8,2.2-5,5-5c33.2,0,65.7,9.2,94.1,26.5
		c28.3,17.3,51.3,42.2,66.3,71.8c15.1,29.6,21.7,62.7,19.1,95.8c-2.6,33.1-14.3,64.8-33.8,91.7c-19.5,26.9-46.1,47.8-76.7,60.5
		c-30.7,12.7-64.3,16.7-97,11.5s-63.5-19.4-88.7-40.9c-25.2-21.6-44-49.7-54.3-81.2C8,246.5,9.4,243.7,12,242.8z"/>
	<path class="st3" d="M246.9,223.7l-0.4-0.3l-0.4,0.3l-20.3,20l-6.2-6.2l26.8-26.4l26.8,26.4l-6.2,6.2L246.9,223.7z"/>
	<path class="st3" d="M246.9,247.7l-0.4-0.3l-0.4,0.3l-20.3,20l-6.2-6.2l26.8-26.4l26.8,26.4l-6.2,6.2L246.9,247.7z"/>
	<path class="st3" d="M246.9,271.7l-0.4-0.3l-0.4,0.3l-20.3,20l-6.2-6.2l26.8-26.4l26.8,26.4l-6.2,6.2L246.9,271.7z"/>
	<path class="st4" d="M225.9,240.5l-6.9-6.9l27.5-27.1l27.5,27.1l-6.9,6.9l-20.6-20.4L225.9,240.5z"/>
	<path class="st4" d="M225.9,264.5l-6.9-6.9l27.5-27.1l27.5,27.1l-6.9,6.9l-20.6-20.4L225.9,264.5z"/>
	<path class="st4" d="M225.9,288.5l-6.9-6.9l27.5-27.1l27.5,27.1l-6.9,6.9l-20.6-20.4L225.9,288.5z"/>
	<path class="st5" d="M146,153.8l-37.4,89.7H82.5l37.8-86.9H74v-21.8h72V153.8z"/>
	<path class="st5" d="M159.3,187.6c0-17.1,3.3-30.5,9.8-40.4c6.7-9.8,17.3-14.8,32-14.8c14.7,0,25.3,4.9,31.9,14.8
		c6.7,9.8,10,23.3,10,40.4c0,17.3-3.3,30.8-10,40.7c-6.6,9.8-17.2,14.8-31.9,14.8c-14.7,0-25.4-4.9-32-14.8
		C162.5,218.5,159.3,204.9,159.3,187.6z M218,187.6c0-10-1.1-17.7-3.3-23.1c-2.2-5.5-6.7-8.2-13.6-8.2c-6.9,0-11.4,2.7-13.6,8.2
		c-2.2,5.4-3.3,13.1-3.3,23.1c0,6.8,0.4,12.4,1.2,16.8c0.8,4.4,2.4,7.9,4.8,10.7c2.5,2.7,6.1,4,10.9,4c4.8,0,8.3-1.3,10.7-4
		c2.5-2.8,4.1-6.4,4.9-10.7C217.6,200,218,194.4,218,187.6z"/>
	<path class="st5" d="M243,210.5c0-3.2,0.9-5.7,2.7-7.4c1.8-1.7,4.2-2.6,7-2.6c2.9,0,5.2,0.9,7,2.6s2.7,4.2,2.7,7.4
		c0,3.2-0.9,5.7-2.7,7.4s-4.1,2.6-7,2.6c-2.9,0-5.2-0.9-7-2.6C243.9,216.2,243,213.7,243,210.5z M282.5,201.2l-22.4,41.7h-9.6
		l22.4-41.7H282.5z M252.7,206.4c-1.9,0-2.8,1.4-2.8,4.1c0,2.7,0.9,4,2.8,4c0.9,0,1.6-0.3,2.1-1s0.8-1.7,0.8-3
		C255.5,207.8,254.6,206.4,252.7,206.4z M270.7,233.5c0-3.2,0.9-5.7,2.7-7.4c1.8-1.7,4.1-2.6,7-2.6s5.2,0.9,7,2.6
		c1.8,1.7,2.7,4.2,2.7,7.4c0,3.2-0.9,5.7-2.7,7.4c-1.8,1.7-4.1,2.6-7,2.6s-5.2-0.9-7-2.6C271.6,239.2,270.7,236.7,270.7,233.5z
		 M280.3,229.4c-0.9,0-1.6,0.3-2.1,1c-0.5,0.7-0.7,1.7-0.7,3.1c0,2.7,0.9,4,2.8,4c0.9,0,1.6-0.3,2.1-1s0.8-1.7,0.8-3
		c0-1.3-0.3-2.3-0.8-3C281.9,229.8,281.2,229.4,280.3,229.4z"/>
	<path d="M150,149.8l-37.4,89.7H86.5l37.8-86.9H78v-21.8h72V149.8z"/>
	<path d="M163.3,183.6c0-17.1,3.3-30.5,9.8-40.4c6.7-9.8,17.3-14.8,32-14.8c14.7,0,25.3,4.9,31.9,14.8c6.7,9.8,10,23.3,10,40.4
		c0,17.3-3.3,30.8-10,40.7c-6.6,9.8-17.2,14.8-31.9,14.8c-14.7,0-25.4-4.9-32-14.8C166.5,214.5,163.3,200.9,163.3,183.6z M222,183.6
		c0-10-1.1-17.7-3.3-23.1c-2.2-5.5-6.7-8.2-13.6-8.2c-6.9,0-11.4,2.7-13.6,8.2c-2.2,5.4-3.3,13.1-3.3,23.1c0,6.8,0.4,12.4,1.2,16.8
		c0.8,4.4,2.4,7.9,4.8,10.7c2.5,2.7,6.1,4,10.9,4c4.8,0,8.3-1.3,10.7-4c2.5-2.8,4.1-6.4,4.9-10.7C221.6,196,222,190.4,222,183.6z"/>
	<path d="M247,206.5c0-3.2,0.9-5.7,2.7-7.4c1.8-1.7,4.2-2.6,7-2.6c2.9,0,5.2,0.9,7,2.6s2.7,4.2,2.7,7.4c0,3.2-0.9,5.7-2.7,7.4
		s-4.1,2.6-7,2.6c-2.9,0-5.2-0.9-7-2.6C247.9,212.2,247,209.7,247,206.5z M286.5,197.2l-22.4,41.7h-9.6l22.4-41.7H286.5z
		 M256.7,202.4c-1.9,0-2.8,1.4-2.8,4.1c0,2.7,0.9,4,2.8,4c0.9,0,1.6-0.3,2.1-1s0.8-1.7,0.8-3C259.5,203.8,258.6,202.4,256.7,202.4z
		 M274.7,229.5c0-3.2,0.9-5.7,2.7-7.4c1.8-1.7,4.1-2.6,7-2.6s5.2,0.9,7,2.6c1.8,1.7,2.7,4.2,2.7,7.4c0,3.2-0.9,5.7-2.7,7.4
		c-1.8,1.7-4.1,2.6-7,2.6s-5.2-0.9-7-2.6C275.6,235.2,274.7,232.7,274.7,229.5z M284.3,225.4c-0.9,0-1.6,0.3-2.1,1
		c-0.5,0.7-0.7,1.7-0.7,3.1c0,2.7,0.9,4,2.8,4c0.9,0,1.6-0.3,2.1-1s0.8-1.7,0.8-3c0-1.3-0.3-2.3-0.8-3
		C285.9,225.8,285.2,225.4,284.3,225.4z"/>
</g>
</svg>
