<?xml version="1.0" encoding="utf-8"?>
<!-- Generator: Adobe Illustrator 22.1.0, SVG Export Plug-In . SVG Version: 6.00 Build 0)  -->
<svg version="1.1" id="Layer_1" xmlns="http://www.w3.org/2000/svg" xmlns:xlink="http://www.w3.org/1999/xlink" x="0px" y="0px"
	 viewBox="0 0 150 150" style="enable-background:new 0 0 150 150;" xml:space="preserve">
<style type="text/css">
	.st0{fill:#D8C295;}
	.st1{fill:none;stroke:#000000;stroke-width:2.5439;}
</style>
<g>
	<path class="st0" d="M70.9,6.3c10.2-0.5,19.6,6.1,26.8,13.3c6.5,6.5,8.5,15.9,11.2,24.7c2.7,8.8,7.5,17.7,4.6,26.4
		c-2.9,8.7-12,12.9-19.3,18.4c-7.4,5.6-14.1,13.6-23.3,13.8c-9.3,0.1-16.5-7.3-23.8-13.1C40,84.4,32.8,78.8,29.3,70.5
		c-3.7-8.8-5.3-18.9-2.2-28c3.1-9,11.5-14.3,18.8-20.4C53.7,15.7,60.8,6.8,70.9,6.3z"/>
	<g>
		<path d="M71.2,34.9c-10.9,0-19.7,8.8-19.7,19.7s8.8,19.7,19.7,19.7s19.7-8.8,19.7-19.7S82.1,34.9,71.2,34.9z M71.2,71.8
			c-9.5,0-17.2-7.7-17.2-17.2s7.7-17.2,17.2-17.2s17.2,7.7,17.2,17.2S80.7,71.8,71.2,71.8z"/>
		<path d="M99.5,20.9c-3.5,0-6.4,2.8-6.4,6.4s2.8,6.4,6.4,6.4s6.4-2.8,6.4-6.4S103.1,20.9,99.5,20.9z M99.5,31.1
			c-2.1,0-3.8-1.7-3.8-3.8s1.7-3.8,3.8-3.8c2.1,0,3.8,1.7,3.8,3.8S101.7,31.1,99.5,31.1z"/>
		<path d="M118,14.9c-1.9-2.7-4.3-5.1-7-7c-7.6-5.4-18.3-5.4-39.8-5.4S39,2.5,31.4,7.9c-2.7,1.9-5.1,4.3-7,7
			C19,22.5,19,33.2,19,54.6s0,32.2,5.4,39.8c1.9,2.7,4.3,5.1,7,7c7.6,5.4,18.3,5.4,39.8,5.4c8.1,0,14.7,0,20.2-0.3
			c-0.5-0.8-1-1.6-1.4-2.5c-5.1,0.2-11.3,0.2-18.8,0.2c-10.8,0-18.7,0-24.8-0.7c-6.1-0.6-10.2-1.9-13.5-4.2
			c-2.5-1.8-4.7-3.9-6.4-6.4c-2.3-3.3-3.6-7.4-4.2-13.5c-0.7-6.1-0.7-14-0.7-24.8s0-18.7,0.7-24.8c0.6-6.1,1.9-10.2,4.2-13.5
			c1.8-2.5,3.9-4.7,6.4-6.4c3.3-2.3,7.4-3.6,13.5-4.2C52.5,5,60.4,5,71.2,5S89.9,5,96,5.7c6.1,0.6,10.2,1.9,13.5,4.2
			c2.5,1.8,4.7,3.9,6.4,6.4c2.3,3.3,3.6,7.4,4.2,13.5c0.7,6.1,0.7,14,0.7,24.8c0,7.6,0,13.7-0.2,18.8c0.9,0.4,1.7,0.9,2.5,1.4
			c0.3-5.5,0.3-12.1,0.3-20.2C123.3,33.2,123.3,22.5,118,14.9z"/>
		<path d="M71.2,27.9c-14.8,0-26.7,12-26.7,26.7s12,26.7,26.7,26.7s26.7-12,26.7-26.7S85.9,27.9,71.2,27.9z M71.2,78.8
			C57.8,78.8,47,68,47,54.6s10.8-24.2,24.2-24.2s24.2,10.8,24.2,24.2S84.5,78.8,71.2,78.8z"/>
		<path d="M112.3,18.9c-1.5-2.1-3.3-3.9-5.3-5.3c-2.4-1.7-5.7-2.8-11.4-3.4c-5.9-0.6-13.5-0.6-24.3-0.6s-18.5,0-24.3,0.6
			c-5.7,0.6-9,1.7-11.4,3.4c-2.1,1.5-3.9,3.3-5.3,5.3c-1.7,2.4-2.8,5.7-3.4,11.4C26,36.2,26,43.8,26,54.6s0,18.5,0.6,24.3
			c0.6,5.7,1.7,9,3.4,11.4c1.5,2.1,3.3,3.9,5.3,5.3c2.4,1.7,5.7,2.8,11.4,3.4c5.9,0.6,13.5,0.6,24.3,0.6c6.9,0,12.5,0,17.2-0.2
			c-0.2-0.8-0.4-1.7-0.5-2.5c-4.5,0.1-10,0.2-16.7,0.2c-10.9,0-18.4,0-24.1-0.6c-5.5-0.6-8.3-1.6-10.2-3c-1.8-1.3-3.4-2.9-4.7-4.7
			c-1.4-1.9-2.4-4.7-3-10.2c-0.6-5.7-0.6-13.1-0.6-24.1s0-18.4,0.6-24.1c0.6-5.5,1.6-8.3,3-10.2c1.3-1.8,2.9-3.4,4.7-4.7
			c1.9-1.4,4.7-2.4,10.2-3c5.7-0.6,13.1-0.6,24.1-0.6s18.4,0,24.1,0.6c5.5,0.6,8.3,1.6,10.2,3c1.8,1.3,3.4,2.9,4.7,4.7
			c1.4,1.9,2.4,4.7,3,10.2c0.6,5.7,0.6,13.1,0.6,24.1c0,6.8,0,12.2-0.2,16.7c0.9,0.1,1.7,0.3,2.5,0.5c0.2-4.7,0.2-10.3,0.2-17.2
			c0-10.9,0-18.5-0.6-24.3C115.1,24.6,114,21.3,112.3,18.9z"/>
	</g>
	<path class="st1" d="M110.6,113.2c-10.5,0-19.1-8.5-19.1-19.1v-0.4c0.2-10.5,8.8-18.8,19.3-18.7c10.5,0.1,18.9,8.7,18.8,19.2
		C129.6,104.7,121.1,113.2,110.6,113.2z M101.9,93.3L99.2,96l7.6,7.6l15.3-15.3l-2.7-2.7l-12.6,12.6L101.9,93.3z"/>
	<rect x="20.3" y="118.2" class="st1" width="73.8" height="5.1"/>
	<rect x="20.3" y="129.7" class="st1" width="92.9" height="5.1"/>
	<rect x="20.3" y="141.1" class="st1" width="54.7" height="5.1"/>
</g>
</svg>
