<?xml version="1.0" encoding="utf-8"?>
<!-- Generator: Adobe Illustrator 22.1.0, SVG Export Plug-In . SVG Version: 6.00 Build 0)  -->
<svg version="1.1" id="Layer_1" xmlns="http://www.w3.org/2000/svg" xmlns:xlink="http://www.w3.org/1999/xlink" x="0px" y="0px"
	 viewBox="0 0 150 150" style="enable-background:new 0 0 150 150;" xml:space="preserve">
<style type="text/css">
	.st0{display:none;}
	.st1{display:inline;fill:#D8C295;}
	.st2{display:inline;}
	.st3{display:inline;fill:none;stroke:#000000;stroke-width:2.5439;}
	.st4{fill:#1F1F1F;}
	.st5{display:inline;fill:none;stroke:#000000;stroke-width:2.7507;}
	.st6{fill:#D8C295;}
	.st7{fill:none;stroke:#000000;stroke-width:2.3283;stroke-linejoin:round;}
</style>
<g class="st0">
	<path class="st1" d="M70.9,6.3c10.2-0.5,19.6,6.1,26.8,13.3c6.5,6.5,8.5,15.9,11.2,24.7c2.7,8.8,7.5,17.7,4.6,26.4
		c-2.9,8.7-12,12.9-19.3,18.4c-7.4,5.6-14.1,13.6-23.3,13.8c-9.3,0.1-16.5-7.3-23.8-13.1C40,84.4,32.8,78.8,29.3,70.5
		c-3.7-8.8-5.3-18.9-2.2-28c3.1-9,11.5-14.3,18.8-20.4C53.7,15.7,60.8,6.8,70.9,6.3z"/>
	<g class="st2">
		<path d="M71.2,34.9c-10.9,0-19.7,8.8-19.7,19.7s8.8,19.7,19.7,19.7s19.7-8.8,19.7-19.7S82.1,34.9,71.2,34.9z M71.2,71.8
			c-9.5,0-17.2-7.7-17.2-17.2s7.7-17.2,17.2-17.2s17.2,7.7,17.2,17.2S80.7,71.8,71.2,71.8z"/>
		<path d="M99.5,20.9c-3.5,0-6.4,2.8-6.4,6.4s2.8,6.4,6.4,6.4s6.4-2.8,6.4-6.4S103.1,20.9,99.5,20.9z M99.5,31.1
			c-2.1,0-3.8-1.7-3.8-3.8s1.7-3.8,3.8-3.8c2.1,0,3.8,1.7,3.8,3.8S101.7,31.1,99.5,31.1z"/>
		<path d="M118,14.9c-1.9-2.7-4.3-5.1-7-7c-7.6-5.4-18.3-5.4-39.8-5.4S39,2.5,31.4,7.9c-2.7,1.9-5.1,4.3-7,7
			C19,22.5,19,33.2,19,54.6s0,32.2,5.4,39.8c1.9,2.7,4.3,5.1,7,7c7.6,5.4,18.3,5.4,39.8,5.4c8.1,0,14.7,0,20.2-0.3
			c-0.5-0.8-1-1.6-1.4-2.5c-5.1,0.2-11.3,0.2-18.8,0.2c-10.8,0-18.7,0-24.8-0.7c-6.1-0.6-10.2-1.9-13.5-4.2
			c-2.5-1.8-4.7-3.9-6.4-6.4c-2.3-3.3-3.6-7.4-4.2-13.5c-0.7-6.1-0.7-14-0.7-24.8s0-18.7,0.7-24.8c0.6-6.1,1.9-10.2,4.2-13.5
			c1.8-2.5,3.9-4.7,6.4-6.4c3.3-2.3,7.4-3.6,13.5-4.2C52.5,5,60.4,5,71.2,5S89.9,5,96,5.7c6.1,0.6,10.2,1.9,13.5,4.2
			c2.5,1.8,4.7,3.9,6.4,6.4c2.3,3.3,3.6,7.4,4.2,13.5c0.7,6.1,0.7,14,0.7,24.8c0,7.6,0,13.7-0.2,18.8c0.9,0.4,1.7,0.9,2.5,1.4
			c0.3-5.5,0.3-12.1,0.3-20.2C123.3,33.2,123.3,22.5,118,14.9z"/>
		<path d="M71.2,27.9c-14.8,0-26.7,12-26.7,26.7s12,26.7,26.7,26.7s26.7-12,26.7-26.7S85.9,27.9,71.2,27.9z M71.2,78.8
			C57.8,78.8,47,68,47,54.6s10.8-24.2,24.2-24.2s24.2,10.8,24.2,24.2S84.5,78.8,71.2,78.8z"/>
		<path d="M112.3,18.9c-1.5-2.1-3.3-3.9-5.3-5.3c-2.4-1.7-5.7-2.8-11.4-3.4c-5.9-0.6-13.5-0.6-24.3-0.6s-18.5,0-24.3,0.6
			c-5.7,0.6-9,1.7-11.4,3.4c-2.1,1.5-3.9,3.3-5.3,5.3c-1.7,2.4-2.8,5.7-3.4,11.4C26,36.2,26,43.8,26,54.6s0,18.5,0.6,24.3
			c0.6,5.7,1.7,9,3.4,11.4c1.5,2.1,3.3,3.9,5.3,5.3c2.4,1.7,5.7,2.8,11.4,3.4c5.9,0.6,13.5,0.6,24.3,0.6c6.9,0,12.5,0,17.2-0.2
			c-0.2-0.8-0.4-1.7-0.5-2.5c-4.5,0.1-10,0.2-16.7,0.2c-10.9,0-18.4,0-24.1-0.6c-5.5-0.6-8.3-1.6-10.2-3c-1.8-1.3-3.4-2.9-4.7-4.7
			c-1.4-1.9-2.4-4.7-3-10.2c-0.6-5.7-0.6-13.1-0.6-24.1s0-18.4,0.6-24.1c0.6-5.5,1.6-8.3,3-10.2c1.3-1.8,2.9-3.4,4.7-4.7
			c1.9-1.4,4.7-2.4,10.2-3c5.7-0.6,13.1-0.6,24.1-0.6s18.4,0,24.1,0.6c5.5,0.6,8.3,1.6,10.2,3c1.8,1.3,3.4,2.9,4.7,4.7
			c1.4,1.9,2.4,4.7,3,10.2c0.6,5.7,0.6,13.1,0.6,24.1c0,6.8,0,12.2-0.2,16.7c0.9,0.1,1.7,0.3,2.5,0.5c0.2-4.7,0.2-10.3,0.2-17.2
			c0-10.9,0-18.5-0.6-24.3C115.1,24.6,114,21.3,112.3,18.9z"/>
	</g>
	<path class="st3" d="M110.6,113.2c-10.5,0-19.1-8.5-19.1-19.1v-0.4c0.2-10.5,8.8-18.8,19.3-18.7c10.5,0.1,18.9,8.7,18.8,19.2
		C129.6,104.7,121.1,113.2,110.6,113.2z M101.9,93.3L99.2,96l7.6,7.6l15.3-15.3l-2.7-2.7l-12.6,12.6L101.9,93.3z"/>
	<rect x="20.3" y="118.2" class="st3" width="73.8" height="5.1"/>
	<rect x="20.3" y="129.7" class="st3" width="92.9" height="5.1"/>
	<rect x="20.3" y="141.1" class="st3" width="54.7" height="5.1"/>
</g>
<g class="st0">
	<path class="st1" d="M76.7,11.3c13-1.2,27.7,1.5,36.6,11.1c8.6,9.2,2.2,24.6,7.3,36.1c6.1,13.8,28.3,21.9,24.9,36.6
		c-3.3,14.3-25.6,12.2-38,20c-11.1,6.9-17.9,20.2-30.7,22.7c-14.1,2.8-29.5,0-41.2-8.4c-11.7-8.4-17.5-22.5-21.2-36.4
		C10.8,79.8,9,65.2,14.9,52.7C20.5,40.9,34,36.3,44.9,29C55.2,22.1,64.3,12.5,76.7,11.3z"/>
	<g class="st2">
		<path class="st4" d="M118.9,96.8c0-1.8-1.5-3.3-3.3-3.3s-3.3,1.5-3.3,3.3c0,1.8,1.5,3.3,3.3,3.3S118.9,98.7,118.9,96.8z
			 M114.3,96.8c0-0.7,0.6-1.3,1.2-1.3c0.7,0,1.2,0.6,1.2,1.3c0,0.7-0.6,1.3-1.2,1.3C114.9,98.1,114.3,97.5,114.3,96.8z"/>
		<path class="st4" d="M92.5,118.9H127h0c1.4,0,2.8,0.4,4,1.1l0,0l9.9,6l3.1,1.9v-3.7V80.2c0-1.4-0.6-2.8-1.6-3.8
			c-1-1-2.4-1.6-3.8-1.6h-25.9v2.1h25.9c0.9,0,1.7,0.4,2.3,1c0.6,0.6,1,1.5,1,2.4v41.6v2.4l-2.1-1.2l-7.8-4.7
			c-1.5-0.9-3.3-1.4-5.1-1.4H92.5c-0.9,0-1.7-0.4-2.3-1c-0.6-0.6-1-1.5-1-2.4v-6.1h-2.1v6.1c0,1.4,0.6,2.8,1.6,3.8
			C89.7,118.3,91,118.9,92.5,118.9z"/>
		<path class="st4" d="M145.7,73.1c-1.9-1.9-4.4-2.9-7-2.9h-25.9v2.1h25.9c2.1,0,4.1,0.8,5.5,2.3c1.5,1.5,2.3,3.5,2.3,5.6v49.9
			c0,0.2-0.1,0.4-0.2,0.6c-0.1,0.2-0.3,0.4-0.5,0.5l0,0c-0.2,0.1-0.4,0.2-0.6,0.2c-0.2,0-0.4-0.1-0.6-0.2l-14.8-9.1l0,0v0
			c-0.9-0.5-1.9-0.8-2.9-0.8H92.5c-2.1,0-4.1-0.8-5.5-2.3c-1.5-1.5-2.3-3.5-2.3-5.6v-6.1h-2.1v6.1c0,2.6,1,5.2,2.9,7.1
			c1.9,1.9,4.4,2.9,7,2.9H127c0.6,0,1.3,0.1,1.8,0.5l14.8,9.1c0.5,0.3,1.1,0.5,1.7,0.5c0.6,0,1.1-0.2,1.6-0.4
			c0.5-0.3,0.9-0.7,1.2-1.2c0.3-0.5,0.5-1.1,0.5-1.7V80.2C148.6,77.5,147.5,75,145.7,73.1z"/>
		<path class="st4" d="M132.1,96.8c0-1.8-1.5-3.3-3.3-3.3c-1.8,0-3.3,1.5-3.3,3.3c0,1.8,1.5,3.3,3.3,3.3
			C130.6,100.2,132.1,98.7,132.1,96.8z M127.5,96.8c0-0.7,0.6-1.3,1.2-1.3c0.7,0,1.2,0.6,1.2,1.3c0,0.7-0.6,1.3-1.2,1.3
			C128.1,98.1,127.5,97.5,127.5,96.8z"/>
	</g>
	<path class="st5" d="M4.8,116.4L4.8,116.4c-0.6-0.3-1.1-0.8-1.4-1.4c-0.3-0.6-0.5-1.3-0.5-1.9V34.9c0-3.8,1.5-7.4,4.2-10.1
		c2.7-2.7,6.3-4.2,10.1-4.2h73.2c3.8,0,7.4,1.5,10.1,4.2c2.7,2.7,4.2,6.3,4.2,10.1v52.1c0,3.8-1.5,7.4-4.2,10.1
		c-2.7,2.7-6.3,4.2-10.1,4.2H35.7c-1.3,0-2.5,0.3-3.6,0.9l0,0l0,0L8.6,116.4c0,0,0,0,0,0c-0.6,0.3-1.3,0.5-2,0.5
		C6,116.9,5.3,116.8,4.8,116.4z M35.7,93.6L35.7,93.6h54.6c1.7,0,3.4-0.7,4.7-1.9c1.2-1.2,1.9-2.9,1.9-4.7V34.9
		c0-1.7-0.7-3.4-1.9-4.7c-1.2-1.2-2.9-1.9-4.7-1.9H17.1c-1.7,0-3.4,0.7-4.7,1.9c-1.2,1.2-1.9,2.9-1.9,4.7v69v2.4l2.1-1.2l15.7-9.4
		l0,0C30.5,94.3,33,93.6,35.7,93.6z M57.5,61c0,2.1-1.7,3.8-3.9,3.8c-2.1,0-3.9-1.7-3.9-3.8c0-2.1,1.7-3.8,3.9-3.8
		C55.8,57.2,57.5,58.9,57.5,61z M78.4,61c0,2.1-1.7,3.8-3.9,3.8s-3.9-1.7-3.9-3.8c0-2.1,1.7-3.8,3.9-3.8S78.4,58.9,78.4,61z
		 M36.6,61c0,2.1-1.7,3.8-3.9,3.8c-2.1,0-3.9-1.7-3.9-3.8c0-2.1,1.7-3.8,3.9-3.8C34.9,57.2,36.6,58.9,36.6,61z"/>
</g>
<g>
	<path class="st6" d="M59,27.6c10.2,0.7,16.6,10.6,25,16.5c8.5,6,20.1,8.8,24.2,18.3c4.2,9.7,1.2,21.1-2.8,30.9
		c-3.8,9.3-11.8,15.5-19,22.5c-8.7,8.4-15.3,21.3-27.4,22.2c-12.1,0.9-22.3-9-30.7-17.8c-7.3-7.6-11.2-17.5-13-27.9
		c-1.6-9.2,0.5-18.2,3.3-27.2c2.8-9.1,5.7-18.3,12.7-24.8C38.9,33.4,48.6,26.9,59,27.6z"/>
	<path class="st7" d="M65.4,33.8c-1.3-2.3-1.7-5.1-1-7.7c0.7-2.6,2.4-4.8,4.8-6.2s5.2-1.7,7.8-1.1c2.6,0.7,4.8,2.4,6.2,4.7L120.4,88
		c1.3,2.3,1.7,5.1,1,7.7s-2.4,4.8-4.8,6.2c-2.4,1.4-5.2,1.7-7.8,1.1c-2.6-0.7-4.8-2.4-6.2-4.7l-0.7-1.3c-17,0.1-32.8,4.5-48,11.4
		L65.5,123c0.7,0.8,1.1,1.6,1.4,2.6c0.3,1,0.3,2,0.1,3c-0.2,1-0.6,1.9-1.1,2.7c-0.6,0.8-1.3,1.5-2.2,2l-3.2,1.9
		c-1.2,0.7-2.5,1-3.8,0.9c-1.3-0.1-2.6-0.5-3.7-1.3l-22.8-14.1c-0.4,0.2-0.8,0.4-1.2,0.7c-3.2,1.8-6.9,2.3-10.4,1.3
		c-3.5-0.9-6.4-3.2-8.2-6.3l-6.8-11.7c-1.8-3.1-2.3-6.8-1.3-10.3c0.9-3.5,3.2-6.5,6.3-8.3c4.9-2.9,9.7-5.9,14.5-8.9
		c17.5-11.3,33.5-26,43.1-42L65.4,33.8z M71.3,30.4l37.2,64.5c0.4,0.8,1.2,1.3,2.1,1.6c0.9,0.2,1.8,0.1,2.6-0.4
		c0.8-0.5,1.4-1.2,1.6-2.1c0.2-0.9,0.1-1.8-0.3-2.6L77.2,26.9c-0.4-0.8-1.2-1.3-2.1-1.6c-0.9-0.2-1.8-0.1-2.6,0.4
		c-0.8,0.5-1.4,1.2-1.6,2.1C70.8,28.7,70.9,29.6,71.3,30.4z M70,41.7C60.2,56.8,45.4,70.3,29.5,81l14.3,24.8
		c1.1-0.6,2.2-1.1,3.3-1.6c15.9-7.7,32.7-13.1,51-13.8L70,41.7z M37.7,108.9l-14-24.2c-3.8,2.4-7.7,4.8-11.6,7.1
		c-1.6,0.9-2.7,2.4-3.2,4.2c-0.5,1.8-0.2,3.6,0.7,5.2l6.8,11.7c1.9,3.2,6,4.3,9.4,2.5C29.7,113.2,33.7,111,37.7,108.9z M37.1,116.9
		l19.8,12.3l0.1,0.1l3.2-1.9l-0.1-0.1l-12.7-15.9C44.1,113.2,40.6,115,37.1,116.9L37.1,116.9z"/>
	<path class="st4" d="M110.6,44.8c-0.5-0.8-0.2-1.9,0.6-2.4l27.2-15.7c0.8-0.5,1.9-0.2,2.4,0.6c0.5,0.8,0.2,1.9-0.6,2.4L113,45.4
		C112.1,45.9,111,45.6,110.6,44.8z"/>
	<path class="st4" d="M114.3,56.7c0-1,0.8-1.7,1.7-1.7h25.6c1,0,1.7,0.8,1.7,1.7c0,1-0.8,1.7-1.7,1.7H116
		C115.1,58.4,114.3,57.6,114.3,56.7z"/>
	<path class="st4" d="M142.5,25.8c-0.5-0.8-0.2-1.9,0.6-2.4l3.5-2c0.8-0.5,1.9-0.2,2.4,0.6c0.5,0.8,0.2,1.9-0.6,2.4l-3.5,2
		C144.1,27,143,26.7,142.5,25.8z"/>
	<path class="st4" d="M102.4,37.3c-0.8-0.5-1.1-1.6-0.6-2.4l12.8-22.2c0.5-0.8,1.6-1.1,2.4-0.6c0.8,0.5,1.1,1.6,0.6,2.4l-12.8,22.2
		C104.3,37.5,103.3,37.8,102.4,37.3z"/>
</g>
</svg>
